<?xml version="1.0" standalone="no"?><!DOCTYPE svg PUBLIC "-//W3C//DTD SVG 1.1//EN" "http://www.w3.org/Graphics/SVG/1.1/DTD/svg11.dtd"><svg t="1578015221657" class="icon" viewBox="0 0 1024 1024" version="1.1" xmlns="http://www.w3.org/2000/svg" p-id="1830" xmlns:xlink="http://www.w3.org/1999/xlink" width="200" height="200"><defs><style type="text/css"></style></defs><path d="M512 178.304m-133.504 0a133.504 133.504 0 1 0 267.008 0 133.504 133.504 0 1 0-267.008 0Z" fill="#FFE05F" p-id="1831"></path><path d="M512 44.8a134.016 134.016 0 0 0-18.176 1.408 133.376 133.376 0 0 1 0 264.192A133.376 133.376 0 1 0 512 44.8z" fill="#FFAE43" p-id="1832"></path><path d="M414.848 190.464A132.992 132.992 0 0 1 571.904 59.136a133.376 133.376 0 1 0-83.456 250.496 133.376 133.376 0 0 1-73.6-119.168z" fill="#FFFFFF" p-id="1833"></path><path d="M512 615.168m-364.032 0a364.032 364.032 0 1 0 728.064 0 364.032 364.032 0 1 0-728.064 0Z" fill="#FFE05F" p-id="1834"></path><path d="M788.48 378.496a364.032 364.032 0 0 1-601.6 400.384 364.032 364.032 0 1 0 601.6-400.384z" fill="#FFAE43" p-id="1835"></path><path d="M184.32 651.52a363.904 363.904 0 0 1 602.496-274.816 363.904 363.904 0 1 0-513.408 513.408A362.496 362.496 0 0 1 184.32 651.52z" fill="#FFFFFF" p-id="1836"></path><path d="M164.096 518.016h695.68s14.208 16.128 12.16 89.6A418.048 418.048 0 0 1 857.6 716.8H160s-18.176-34.432-12.16-101.12a481.024 481.024 0 0 1 16.256-97.664z" fill="#F24949" p-id="1837"></path><path d="M513.024 614.528m-48.512 0a48.512 48.512 0 1 0 97.024 0 48.512 48.512 0 1 0-97.024 0Z" fill="#9AE585" p-id="1838"></path><path d="M475.392 622.976a42.496 42.496 0 1 1 84.992 0v2.944a48.512 48.512 0 1 0-61.568 34.56 42.368 42.368 0 0 1-23.424-37.504z" fill="#FFFFFF" p-id="1839"></path><path d="M540.672 574.72A48.512 48.512 0 0 1 473.6 642.176a48.512 48.512 0 1 0 67.456-67.456z" fill="#66BA47" p-id="1840"></path><path d="M298.24 614.528m-48.512 0a48.512 48.512 0 1 0 97.024 0 48.512 48.512 0 1 0-97.024 0Z" fill="#9AE585" p-id="1841"></path><path d="M260.608 622.976a42.496 42.496 0 1 1 84.992 0v2.944a48.512 48.512 0 1 0-61.568 34.56 42.368 42.368 0 0 1-23.424-37.504z" fill="#FFFFFF" p-id="1842"></path><path d="M325.888 574.72a48.512 48.512 0 0 1-67.456 67.456 48.512 48.512 0 1 0 67.456-67.456z" fill="#66BA47" p-id="1843"></path><path d="M724.096 614.528m-48.512 0a48.512 48.512 0 1 0 97.024 0 48.512 48.512 0 1 0-97.024 0Z" fill="#9AE585" p-id="1844"></path><path d="M686.464 622.976a42.496 42.496 0 1 1 84.992 0v2.944a48.512 48.512 0 1 0-61.568 34.56 42.368 42.368 0 0 1-23.424-37.504z" fill="#FFFFFF" p-id="1845"></path><path d="M751.744 574.72a48.512 48.512 0 0 1-67.456 67.456 48.512 48.512 0 1 0 67.456-67.456z" fill="#66BA47" p-id="1846"></path><path d="M166.144 513.024h697.728v31.616H166.144z" fill="#FFFFFF" p-id="1847"></path><path d="M365.568 182.016h292.736v81.92H365.568z" fill="#F24949" p-id="1848"></path><path d="M166.144 681.856h697.728v31.744H166.144z" fill="#D62929" p-id="1849"></path><path d="M364.8 188.416h291.968v19.712H364.8z" fill="#FFFFFF" p-id="1850"></path><path d="M682.88 272.256v-97.024a19.2 19.2 0 0 0-19.2-19.2h-0.768a152.448 152.448 0 0 0-301.824 0h-0.768a19.2 19.2 0 0 0-19.2 19.2v97.024a383.232 383.232 0 1 0 341.76 0zM512 64a114.432 114.432 0 0 1 112.128 92.032H399.872A114.432 114.432 0 0 1 512 64zM379.52 194.432h264.96V256a383.232 383.232 0 0 0-264.96 0zM512 270.336a345.6 345.6 0 0 1 326.784 234.88H185.216A345.6 345.6 0 0 1 512 270.336zM512 960a345.6 345.6 0 0 1-326.784-235.008h653.568A345.6 345.6 0 0 1 512 960zM177.536 699.392a344.832 344.832 0 0 1 0-168.576h668.8a344.832 344.832 0 0 1 0 168.576z" fill="#4C3A30" p-id="1851"></path><path d="M512 560.256a54.912 54.912 0 1 0 54.912 54.912A55.04 55.04 0 0 0 512 560.256z m0 97.024a42.112 42.112 0 1 1 42.112-42.112A42.24 42.24 0 0 1 512 657.28zM299.648 560.256a54.912 54.912 0 1 0 54.912 54.912 55.04 55.04 0 0 0-54.912-54.912z m0 97.024a42.112 42.112 0 1 1 42.112-42.112 42.24 42.24 0 0 1-42.112 42.112zM724.352 560.256a54.912 54.912 0 1 0 54.912 54.912 55.04 55.04 0 0 0-54.912-54.912z m0 97.024a42.112 42.112 0 1 1 42.112-42.112 42.24 42.24 0 0 1-42.112 42.112z" fill="#4C3A30" p-id="1852"></path></svg>