<?xml version="1.0" standalone="no"?><!DOCTYPE svg PUBLIC "-//W3C//DTD SVG 1.1//EN" "http://www.w3.org/Graphics/SVG/1.1/DTD/svg11.dtd"><svg t="1578015240771" class="icon" viewBox="0 0 1024 1024" version="1.1" xmlns="http://www.w3.org/2000/svg" p-id="2101" xmlns:xlink="http://www.w3.org/1999/xlink" width="200" height="200"><defs><style type="text/css"></style></defs><path d="M76.032 500.736V227.2A182.4 182.4 0 0 1 258.432 44.8a182.4 182.4 0 0 1 182.4 182.4V495.36z" fill="#F24949" p-id="2102"></path><path d="M258.432 44.8A182.4 182.4 0 0 0 76.032 227.2v38.4A182.4 182.4 0 0 1 258.432 83.328a182.4 182.4 0 0 1 182.4 182.4v-38.4A182.4 182.4 0 0 0 258.432 44.8z" fill="#FFFFFF" p-id="2103"></path><path d="M358.4 500.736V343.168a49.92 49.92 0 0 1 49.792-49.792 49.92 49.92 0 0 1 49.792 49.792v157.44" fill="#F24949" p-id="2104"></path><path d="M407.552 293.504A49.92 49.92 0 0 0 358.4 343.168v30.848a49.792 49.792 0 1 1 99.456 0v-30.848a49.92 49.92 0 0 0-50.304-49.664z" fill="#FFFFFF" p-id="2105"></path><path d="M78.976 204.928h358.912v89.856H78.976zM78.976 425.472h278.912v16.768H78.976z" fill="#9AE585" p-id="2106"></path><path d="M78.976 350.848h278.912v60.16H78.976z" fill="#FFE05F" p-id="2107"></path><path d="M78.976 460.288h278.912v38.528H78.976z" fill="#D62929" p-id="2108"></path><path d="M354.176 460.032h103.168v38.784h-103.168z" fill="#D62929" p-id="2109"></path><path d="M51.2 499.84m51.2 0l328.576 0q51.2 0 51.2 51.2l0 13.696q0 51.2-51.2 51.2l-328.576 0q-51.2 0-51.2-51.2l0-13.696q0-51.2 51.2-51.2Z" fill="#FFFFFF" p-id="2110"></path><path d="M451.328 577.28H82.048A30.976 30.976 0 0 1 51.2 546.432v38.4a30.976 30.976 0 0 0 30.848 30.848h369.28a30.976 30.976 0 0 0 30.848-30.848v-38.4a30.976 30.976 0 0 1-30.848 30.848z" fill="#EAEDF4" p-id="2111"></path><path d="M437.376 280.704a12.8 12.8 0 0 1-7.296-2.304l-44.288-30.976-44.288 30.976a12.8 12.8 0 0 1-14.72 0l-44.16-30.976-44.16 30.976a12.8 12.8 0 0 1-14.72 0L179.2 247.424l-44.16 30.976a12.8 12.8 0 0 1-14.72 0l-51.2-36.096a12.8 12.8 0 0 1 14.72-20.992L128 252.288l44.16-30.976a12.8 12.8 0 0 1 14.72 0l44.16 30.976 44.16-30.976a12.8 12.8 0 0 1 14.72 0l44.16 30.976 44.288-30.976a12.8 12.8 0 0 1 14.72 0l51.2 36.096a12.8 12.8 0 0 1-7.296 23.296z" fill="#66BA47" p-id="2112"></path><path d="M947.968 641.536V368A182.4 182.4 0 0 0 765.568 185.6a182.4 182.4 0 0 0-182.4 182.4V636.16z" fill="#F24949" p-id="2113"></path><path d="M765.568 185.6a182.4 182.4 0 0 1 182.4 182.4v38.4a182.4 182.4 0 0 0-182.4-182.272 182.4 182.4 0 0 0-182.4 182.4v-38.4A182.4 182.4 0 0 1 765.568 185.6z" fill="#FFFFFF" p-id="2114"></path><path d="M665.6 641.536V483.968a49.92 49.92 0 0 0-49.792-49.792 49.92 49.92 0 0 0-49.792 49.792v157.44" fill="#F24949" p-id="2115"></path><path d="M616.448 434.304A49.92 49.92 0 0 1 665.6 483.968v30.848a49.792 49.792 0 1 0-99.456 0v-30.848a49.92 49.92 0 0 1 50.304-49.664z" fill="#FFFFFF" p-id="2116"></path><path d="M945.024 435.712H586.112v-89.856h358.912zM945.152 583.168H666.24v-16.768h278.912z" fill="#9AE585" p-id="2117"></path><path d="M945.152 551.808H666.24v-60.16h278.912z" fill="#FFE05F" p-id="2118"></path><path d="M945.152 639.616H666.24v-38.528h278.912z" fill="#D62929" p-id="2119"></path><path d="M669.824 639.616h-103.168v-39.68h103.168z" fill="#D62929" p-id="2120"></path><path d="M972.8 756.736m-51.2 0l-328.576 0q-51.2 0-51.2-51.2l0-13.696q0-51.2 51.2-51.2l328.576 0q51.2 0 51.2 51.2l0 13.696q0 51.2-51.2 51.2Z" fill="#FFFFFF" p-id="2121"></path><path d="M572.672 718.08h369.28A30.976 30.976 0 0 0 972.8 687.232v38.4a30.976 30.976 0 0 1-30.848 30.848H572.672a30.976 30.976 0 0 1-30.848-30.848v-38.4a30.976 30.976 0 0 0 30.848 30.848z" fill="#EAEDF4" p-id="2122"></path><path d="M586.624 421.504a12.8 12.8 0 0 1-7.296-23.296l51.2-36.096a12.8 12.8 0 0 1 14.72 0l44.288 30.976 44.16-30.976a12.8 12.8 0 0 1 14.72 0l44.16 30.976 44.16-30.976a12.8 12.8 0 0 1 14.72 0L896 393.088l44.16-30.976a12.8 12.8 0 1 1 14.72 20.992l-51.2 36.096a12.8 12.8 0 0 1-14.72 0L844.8 388.224l-44.16 30.976a12.8 12.8 0 0 1-14.72 0l-44.16-30.976-44.16 30.976a12.8 12.8 0 0 1-14.72 0l-44.288-30.976-44.672 30.976a12.8 12.8 0 0 1-7.296 2.304z" fill="#66BA47" p-id="2123"></path><path d="M967.168 631.808V368a201.6 201.6 0 0 0-403.072 0v71.68a68.224 68.224 0 0 0-16.512 44.288v147.84a57.472 57.472 0 0 0-24.832 47.232v39.296a57.6 57.6 0 0 0 57.6 57.6h173.824A211.456 211.456 0 0 1 544 966.4h-51.2A211.456 211.456 0 0 1 281.6 755.2v-120.064h162.176a57.6 57.6 0 0 0 57.6-57.6v-39.296a57.472 57.472 0 0 0-24.832-47.232V343.168a68.224 68.224 0 0 0-16.512-44.288v-71.68a201.6 201.6 0 0 0-403.072 0v263.808a57.472 57.472 0 0 0-24.96 47.232v39.296a57.6 57.6 0 0 0 57.6 57.6h166.4V755.2a237.056 237.056 0 0 0 236.8 236.8h51.2a237.056 237.056 0 0 0 235.776-216.064H934.4a57.6 57.6 0 0 0 57.6-57.6v-39.296a57.472 57.472 0 0 0-24.832-47.232zM438.144 343.168v137.472h-61.056V343.168a30.592 30.592 0 0 1 61.056 0zM95.232 227.2a163.2 163.2 0 0 1 326.272 0v48.512a68.864 68.864 0 0 0-82.944 67.456v137.472h-243.2zM70.4 577.536v-39.296a19.2 19.2 0 0 1 19.2-19.2h354.176a19.2 19.2 0 0 1 19.2 19.2v39.296a19.2 19.2 0 0 1-19.2 19.2H89.6a19.2 19.2 0 0 1-19.2-19.2z m531.968-209.536a163.2 163.2 0 0 1 326.272 0v253.44h-243.2V483.968a68.864 68.864 0 0 0-82.944-67.456z m-16.512 116.096a30.592 30.592 0 0 1 61.056 0v137.344h-61.056z m367.744 234.24a19.2 19.2 0 0 1-19.2 19.2H580.224a19.2 19.2 0 0 1-19.2-19.2v-39.296a19.2 19.2 0 0 1 19.2-19.2H934.4a19.2 19.2 0 0 1 19.2 19.2z" fill="#4C3A30" p-id="2124"></path></svg>