<?xml version="1.0" standalone="no"?><!DOCTYPE svg PUBLIC "-//W3C//DTD SVG 1.1//EN" "http://www.w3.org/Graphics/SVG/1.1/DTD/svg11.dtd"><svg t="1578015090198" class="icon" viewBox="0 0 1024 1024" version="1.1" xmlns="http://www.w3.org/2000/svg" p-id="1568" xmlns:xlink="http://www.w3.org/1999/xlink" width="200" height="200"><defs><style type="text/css"></style></defs><path d="M832 452.352L441.472 843.136a411.904 411.904 0 0 1-260.608-260.608L571.648 192" fill="#F24949" p-id="1569"></path><path d="M787.8912 423.3216l27.1616 27.1488L425.856 839.68l-27.1488-27.1488z" fill="#D62929" p-id="1570"></path><path d="M940.8 83.2L528.256 104.96A1032.448 1032.448 0 0 0 919.04 495.744z" fill="#F24949" p-id="1571"></path><path d="M398.464 365.056H744.96l-76.8-76.8H475.136l-76.672 76.8zM244.864 518.528h521.088l66.304-66.176-10.496-10.496H321.664l-76.8 76.672zM223.36 672.128h389.12l76.8-76.8H185.6a411.648 411.648 0 0 0 37.76 76.8z" fill="#FFFFFF" p-id="1572"></path><path d="M539.008 672.128h54.272l76.8-76.8h-54.272l-76.8 76.8z" fill="#EAEDF4" p-id="1573"></path><path d="M397.568 825.6h61.312l76.8-76.8H285.952a411.648 411.648 0 0 0 111.616 76.8z" fill="#FFFFFF" p-id="1574"></path><path d="M439.68 825.6l76.8-76.8h-54.272l-58.368 58.496 18.304 18.304h17.536z" fill="#EAEDF4" p-id="1575"></path><path d="M919.04 104.96l-336 72.32-38.528-72.32H919.04z" fill="#FFFFFF" p-id="1576"></path><path d="M915.072 98.176l-97.792 333.696 97.792 43.52V98.176z" fill="#D62929" p-id="1577"></path><path d="M571.648 207.0272l27.136 27.1488-384.0256 384.0384-27.1488-27.1488z" fill="#FFFFFF" p-id="1578"></path><path d="M769.28 441.856l-76.8 76.672h54.272l68.224-68.096-8.576-8.576h-37.12z" fill="#EAEDF4" p-id="1579"></path><path d="M232.32 324.48l-14.592 42.88 27.136 36.352-45.312-0.64-26.112 36.992L160 396.8l-43.136-13.44 36.864-26.112-0.64-45.184 36.352 27.008 42.88-14.592zM897.152 610.816l-20.352 60.032 37.888 50.688-63.36-0.768-36.48 51.712-18.816-60.544-60.544-18.688 51.712-36.608-0.768-63.36 50.688 37.888 60.032-20.352z" fill="#FFE05F" p-id="1580"></path><path d="M954.368 69.632A19.456 19.456 0 0 0 939.776 64L527.232 85.76A19.2 19.2 0 0 0 512 114.304c12.8 23.296 27.264 46.08 42.24 68.224L167.296 568.96a19.2 19.2 0 0 0-4.608 19.84 430.464 430.464 0 0 0 91.136 153.6L69.632 927.232a19.2 19.2 0 1 0 27.136 27.136L281.6 770.176a430.464 430.464 0 0 0 153.6 91.136 19.2 19.2 0 0 0 19.712-4.608l386.56-386.432c22.144 14.848 44.8 28.928 68.224 41.728a19.2 19.2 0 0 0 28.672-15.744L960 84.224a19.2 19.2 0 0 0-5.632-14.592z m-518.016 751.36a394.752 394.752 0 0 1-233.344-233.344L576 214.528A1051.264 1051.264 0 0 0 809.472 448z m465.152-358.4A1013.248 1013.248 0 0 1 560.768 122.368l359.68-18.944zM113.92 392.576l38.4 11.904 11.904 38.4a9.6 9.6 0 0 0 7.68 6.656h1.536a9.6 9.6 0 0 0 7.808-4.096L204.8 412.672h40.192a9.6 9.6 0 0 0 7.68-15.36l-24.064-32.256 12.8-38.4a9.6 9.6 0 0 0-12.8-12.8l-38.4 12.8-32.256-24.064a9.6 9.6 0 0 0-15.36 7.808v40.192l-31.36 24.96a9.6 9.6 0 0 0 2.688 17.024z m45.312-27.392a9.6 9.6 0 0 0 4.096-7.936v-25.6l20.608 15.488a9.472 9.472 0 0 0 8.832 1.408l24.448-8.32-8.32 24.448a9.6 9.6 0 0 0 1.408 8.832l15.488 20.608h-25.6a9.6 9.6 0 0 0-7.808 4.096l-15.616 20.352-7.68-24.576a9.6 9.6 0 0 0-6.272-6.272l-24.576-7.68z" fill="#4C3A30" p-id="1581"></path><path d="M887.552 669.056L906.24 614.4a9.6 9.6 0 0 0-12.8-12.8l-55.168 18.688-46.72-34.816a9.6 9.6 0 0 0-15.36 7.808l0.768 58.24-47.36 33.792a9.6 9.6 0 0 0 2.688 17.024l55.68 17.28 17.28 55.68a9.6 9.6 0 0 0 7.68 6.656h1.536a9.6 9.6 0 0 0 7.808-4.096l33.664-47.616 58.24 0.768a9.6 9.6 0 0 0 7.68-15.36z m-36.096 42.112a9.344 9.344 0 0 0-7.936 4.096l-25.6 35.84-12.8-41.856a9.6 9.6 0 0 0-6.272-6.272l-41.856-12.8 35.84-25.6a9.6 9.6 0 0 0 4.096-7.936v-43.904L832 638.848a9.6 9.6 0 0 0 8.832 1.408l41.6-14.08-14.08 41.6a9.6 9.6 0 0 0 1.408 8.832L896 711.68z" fill="#4C3A30" p-id="1582"></path></svg>